<?xml version="1.0" encoding="UTF-8" standalone="no"?>
<!-- Created with Inkscape (http://www.inkscape.org/) -->

<svg
   version="1.1"
   id="svg1"
   width="500"
   height="500"
   viewBox="0 0 7333.3335 7333.3335"
   sodipodi:docname="6e59edc0-5221-4a0a-a14f-759fd3fd3a3f.eps"
   xmlns:inkscape="http://www.inkscape.org/namespaces/inkscape"
   xmlns:sodipodi="http://sodipodi.sourceforge.net/DTD/sodipodi-0.dtd"
   xmlns="http://www.w3.org/2000/svg"
   xmlns:svg="http://www.w3.org/2000/svg">
  <defs
     id="defs1" />
  <sodipodi:namedview
     id="namedview1"
     pagecolor="#ffffff"
     bordercolor="#000000"
     borderopacity="0.25"
     inkscape:showpageshadow="2"
     inkscape:pageopacity="0.0"
     inkscape:pagecheckerboard="0"
     inkscape:deskcolor="#d1d1d1">
    <inkscape:page
       x="0"
       y="0"
       inkscape:label="1"
       id="page1"
       width="7333.3335"
       height="7333.3335"
       margin="0"
       bleed="0" />
  </sodipodi:namedview>
  <g
     id="g1"
     inkscape:groupmode="layer"
     inkscape:label="1">
    <g
       id="group-R5">
      <path
         id="path3"
         d="m 21441.8,52149.2 c 121.7,20.5 248.4,20.2 360.7,-36.2 268.8,-134.9 685.7,-611.5 766.3,-903.3 101.7,-368.3 -491.3,-852.8 -689.1,-1182.1 292.5,-409.7 657.7,-846.3 745.1,-1356.2 89.8,-523.4 -201.6,-723.1 -467,-1104.9 -80.3,-115.7 -128.4,-252.1 -98,-393.4 67.3,-312.3 440.3,-731.4 701.5,-901 808.1,152.4 1392.5,1155.7 1987,1245 259.9,39 558.1,-55.6 812.3,-110.1 475.3,-101.5 950,-206.1 1423.9,-313.9 289.4,-65.5 605.2,-165.7 901.5,-177.3 399.4,-15.6 828.4,153 1224.4,214.1 l 34.8,5.1 c 475.6,899.7 747.4,1922 1578,2573.9 127.4,100 286.5,197.1 456.1,170.7 175,-27.2 275.5,-133.5 370.9,-272.6 62,-463.7 7.6,-986.9 0.2,-1455 213.4,-316.7 513,-530.7 734.3,-827.2 136.7,-183.1 144.5,-438.3 245,-640.2 79.3,-159.2 228.5,-282.5 328.9,-428.7 227.7,-331.3 201.9,-825.3 234,-1215.3 293.6,-199.6 658.3,-316.1 919.2,-556.8 144,-132.8 264.5,-308.6 385,-463.1 685,-132.9 740.4,51.1 1347.8,-474.4 327.1,-15.4 670.3,-11.1 991.6,-76.8 231.7,-180.9 436.1,-412.5 661.3,-604.9 931.2,-44.9 1872.7,-49.3 2805.3,-58.4 399.8,-3.8 1072.8,63.6 1436.7,-40.5 261.7,-74.9 519.5,-290.1 749.8,-432 274.6,-169.3 535.9,-289.1 843.7,-383.2 590.4,-180.5 1543.4,-327 2038.6,-656.4 184.4,-122.6 336.8,-294.5 484.6,-457.5 417.5,-460.2 784.7,-961.4 1337.9,-1264 369.4,-202 752.9,-379.5 1126.6,-573.5 l 1660.5,-873.1 c 334.8,-173.1 950.4,-436.9 1216.2,-664.6 85.4,-73.1 123.8,-200.1 160,-302.7 135.9,-384.5 222.9,-796.1 332.2,-1190 138.2,-498.3 393.8,-1198.3 431.1,-1693.5 8.6,-114.1 -11.2,-140.2 -75.5,-235.8 -230.5,-342.4 -513,-663.6 -768.6,-988.6 l -1510,-1914.4 c -419.2,-529.7 -835.3,-1061.8 -1248.4,-1596.2 -378.7,-499.8 -741.8,-1004.6 -1143.3,-1487.2 61.4,-485.4 176.8,-970.6 276.7,-1449.6 l 322.5,-1581 c 90.1,-423.1 226.1,-874.6 243.9,-1307.3 -210.7,-476.3 -919.8,-1350 -1257,-1811.2 235.9,-237.8 437.1,-448 453.1,-803.5 16.9,-376.4 -169.4,-797.5 -426.6,-1070 -363,-84.6 -765.5,-72.5 -1137.1,-102.1 -379.7,-735.1 -717,-1644.3 -1022.9,-2419.6 -153.9,-390.1 -288.7,-852.4 -519.3,-1201.8 -474.4,-278 -1064.2,-406.6 -1581.6,-592.6 -1427.7,-507.9 -2861,-999.3 -4299.9,-1474.4 -706.7,-236.2 -1523.8,-441.8 -2192.2,-757.1 -148.7,-276.9 -262.9,-584.5 -386.8,-873.6 -155.9,-363.8 -322.4,-722.7 -459.4,-1094.3 204.8,-290.1 476.1,-525.4 669.9,-824 7.9,-130.7 20.9,-270.4 -24.5,-395.6 -151.1,-417.5 -633.6,-582.1 -1007.1,-746.2 -27.4,-242.8 -45.5,-539.3 -140.6,-763.7 -162.2,-382.9 -676.2,-510 -1029.3,-652.5 -196.1,-452.7 -317.8,-939.7 -515,-1392 -53.8,-123.5 -119.5,-241.5 -221.5,-332 -256.8,-227.9 -1285.5,-703.3 -1650.3,-905.9 -374.9,-711.7 -581.5,-1498.6 -930.1,-2219 -70.4,-145.4 -154.8,-274.3 -317,-323 -171.8,-51.6 -323.8,9.8 -472.9,92.3 -623,388.1 -1198.5,862.7 -1778.2,1311.4 -635.8,492.1 -1285.8,971.8 -1929.5,1453.8 -433.9,325 -2528.8,1759.7 -2715.8,2029.6 -59.5,85.8 -83.2,175.4 -63.1,278.9 16.5,85.7 68.6,162.9 124.1,228.5 548.9,649.2 1158.6,1261 1723,1899.2 273.8,309.6 663,859.2 955.3,1102 394.7,328 967.6,549.3 1402.5,855.3 -156.8,315.1 -1033.6,2122.6 -1053.7,2313.6 -34.9,333.7 93.1,743.4 157.2,1071.1 -65.2,36.4 -132.1,73.3 -192.6,117.2 -302.9,219.8 -316,798.1 -357.5,1142.4 -377.5,211.6 -2720.7,1313.7 -2819.4,1485.2 -156.1,271 -169,706.7 -215.7,1014.2 -70.8,466.2 -196.9,986.3 -193.2,1457.5 3.1,386.5 492.6,1569.9 630,2028.7 -177.5,399.9 -305.1,828.9 -443.5,1243.6 -639.2,260.1 -1264.3,565.4 -1896.9,841.9 -376.8,164.7 -865.9,295.4 -1194.4,534 -68.7,49.9 -87.4,101.3 -110,179.4 -98.8,341.5 -121.8,723.9 -179.7,1076.6 -116.3,709.7 -249,1416.2 -358.3,2127.3 -488.9,121.4 -975.6,247.6 -1466,363.4 -303.3,71.7 -656.4,118.2 -941.9,237 -358,148.9 -2331.4,1940.4 -2764.9,2319.3 -294.5,257.3 -620.2,499.5 -893.7,778.2 -299.2,305 188.2,1388.9 184.1,1814.2 -47.5,39.1 -87.6,65 -152.2,61.4 -263,-14.7 -548.2,-570.8 -704.8,-767.4 l -20.4,-25.3 c -262.7,-62.5 -541.6,-37.8 -801.8,-105.2 -307,-79.4 -509.4,-341.4 -806.4,-443.5 -335.7,-115.4 -703.6,-181.4 -1049.8,-265.1 -581.96,-140.8 -1163.65,-288.2 -1749.26,-413 -75.95,28.5 -156.46,58.3 -218.61,112.2 -242.88,210.5 -224.19,964.7 -258.78,1282.9 -314.2,-120.6 -685.13,-397.9 -1023.35,-409.4 -367.22,-12.4 -799.92,640.6 -1151.98,794.4 -388.7,169.9 -903.85,40.8 -1275.11,246.4 -29.06,15.9 -56.02,34.8 -80.9,56.6 -7.52,6.5 -14.95,13.1 -21.99,20.2 -172.17,171.6 -48.95,1031.3 -44.41,1302.9 -227.71,230.6 -840.04,874.2 -869.63,1176 -33.25,339.1 756.84,1212.4 995.17,1494.9 -160.72,476.1 -257.25,988.6 -391.14,1474.4 20.82,88.9 47.92,177 72.51,265.1 302.95,314.3 1399.48,877.2 1839.68,1146.5 168.27,102.9 373.99,213.6 505.04,362.5 197.6,224.5 312.38,561.7 455.74,824.5 60.75,111.3 135.14,243 248.14,308.3 268.45,155.2 651.84,205.7 952.35,282.2 519.92,132.6 1043.55,257.2 1558.1,409.5 -59.03,378.6 -399.5,1775.1 -356.75,2001.5 66.07,349.2 265.77,733.6 384.15,1073.3 175.58,503.9 312.75,1025.9 508.53,1522 27.55,69.7 56.29,151.9 121.33,194.8 8.81,5.8 18.1,10.8 26.91,16.6 340.66,223 2315.56,1242.4 2614.36,1182.3 399.1,-80.3 788.4,-285.7 1159.2,-449.2 324.2,-143.1 738.5,-277.4 1027.5,-482.5 309.1,-219.2 718.2,-1078.8 950.2,-1433.5 416.8,292.3 891.4,520 1338.4,763.7 -197.1,294.5 -415.8,590.7 -586.5,901 -99.5,180.8 -192.1,408.5 -123.5,615.6 11.3,33.2 25.5,65.3 42.6,96 19.3,34.4 41.3,66.8 66.2,97.4 24.8,30.6 52,58.8 81.7,84.7 328.6,292.9 1850.7,458.1 2461.8,734.5 536.5,242.6 1043.8,613.1 1502.4,981.5 305.9,245.6 600.8,533.9 959,700.7"
         style="fill:none;stroke:#F7D7B6;stroke-width:1400;stroke-linejoin:round"
         transform="matrix(0.13333333,0,0,-0.13333333,0,7333.3333)" />
      <!-- path4 removed -->
      <!--
      <path
         id="path4"
         d="m 21471.8,51193.9 c 42.8,-13.3 61.7,-33.1 95.3,-61.7 10,-137.6 -367.8,-484 -450.3,-644.3 -405.7,-787.5 444,-1215.7 645.2,-1852.5 l 11.9,-38.5 c -146.1,-398 -526.3,-671.5 -629.2,-1083.6 -81.6,-327.5 22,-628.1 195.8,-904.3 277.4,-440.6 745.2,-1062.6 1285.1,-1170.3 852.8,-170.1 1670.3,784.4 2306.5,1195.8 9.4,6 18.8,11.8 28.2,17.8 600,-127 1202.8,-245.6 1801.2,-379.6 349.2,-78.2 734.9,-219.6 1090.9,-238.5 359.1,-19 1341.5,179.9 1676.8,311 96.6,37.8 180.6,81.4 247.4,162.2 267.7,323.8 712,1448.9 906.3,1890.7 3,-95.6 7,-192.5 21.6,-287.2 81.2,-524 423.3,-883.4 834.7,-1180.3 150,-504.6 261.8,-777.9 599.8,-1195.8 54.3,-1082 -112.6,-1102.2 843.9,-1636.3 159,-88.8 358.5,-177.2 488,-306.1 115.5,-115 191.2,-273.8 293,-401.4 282,-353.4 808.5,-275.2 1216.7,-322 98.7,-82.4 186,-179.8 290.1,-256.2 298.1,-218.8 734.1,-132.6 1082.9,-173.2 40.8,-42.3 82.1,-84 124,-125.2 192.8,-188.8 457.2,-414.6 721.1,-491.8 270.6,-79.1 1234.5,-39.9 1589.6,-46.6 880.4,-16.5 1760.6,-62.2 2641.3,-50.6 798.5,-589.1 1493.8,-813 2435.1,-1053.3 272.1,-69.5 599.1,-113 848.1,-245 371.1,-196.7 948.6,-1000.9 1273.1,-1339.8 405.5,-423.5 1006.3,-640.8 1519.7,-903.9 l 1740.3,-901.5 c 412,-213.4 842,-415.6 1229.6,-671.4 187.6,-806.3 426.2,-1606.4 639.2,-2406.9 -308.4,-504.7 -749.6,-956.9 -1114.8,-1424.4 -572.5,-733.1 -1116.2,-1489.6 -1696.2,-2216.5 -407.5,-505.5 -811.1,-1014 -1210.8,-1525.6 -191.1,-243.1 -399.7,-484 -574.4,-738.7 -58.6,-85.4 -132.1,-185.1 -135.4,-291.6 -10.3,-332.5 183.7,-1051.7 254,-1405.5 195.6,-953.7 381.1,-1909.3 556.7,-2866.9 -229.4,-368 -1355.9,-1856.8 -1337.1,-2156.6 17.8,-286 310.7,-469.8 501.4,-645.8 64.6,-59.7 90.8,-107.8 94.7,-197.7 -85.7,-114.4 -969.5,-87.4 -1203.4,-184.3 -68.6,-28.5 -121.2,-66.5 -161.6,-129.6 -234.7,-365.9 -387.4,-862.9 -552.5,-1267.5 L 43543.4,16901 c -1484,-450.7 -2942.3,-997 -4411.4,-1494.2 -524.9,-177.7 -3290.1,-1026.7 -3538.8,-1225.8 -205.2,-164.2 -1242.4,-2586.7 -1243,-2814.2 -0.7,-287.2 468.5,-658.4 649.3,-868.6 -251.7,-104.5 -592.4,-204.3 -784,-403.4 -229.9,-238.9 -189.5,-610.9 -187.8,-916.9 -219,-109.4 -457.3,-168.3 -679.8,-267.6 -116.7,-52.1 -204.4,-112.7 -280.3,-216.1 -242.3,-330.4 -473.9,-1186.3 -644.5,-1607.7 -473,-305.6 -1004.1,-513.8 -1474.4,-815.9 -622.9,-400.1 -787.6,-1573.1 -1141.6,-2217.5 -4.8,-8.7 -9.7,-17.3 -14.6,-25.9 -231.1,140.4 -448.9,305.1 -669,461.9 -446.7,318.2 -877.9,659.7 -1318,987 -1176.4,892.4 -2364.5,1768.8 -3564.2,2629.5 510.5,565.4 1017.3,1134 1520.3,1706 243.7,279.3 473.2,587.9 736.9,847 l 39.4,38.3 c 328.3,322.2 1704.5,795.5 1837.3,1128.1 45.4,113.8 -6.6,293.5 -44.1,402.1 -101.8,294 -267.2,585 -402.8,865.7 l -737.4,1532.2 c 101.6,402.6 198,890.6 172.1,1305.9 -129.2,225.4 -280.1,341.4 -492.1,480.8 -73.2,283.8 -72.4,595.5 -166.1,870.8 -32.3,94.8 -72.6,156.8 -151.7,219.5 -253.9,201.2 -601,339.7 -891.9,486.1 l -1801.3,895.2 c -91.6,316.3 -134.7,660.5 -185.9,985.2 -42.9,271.7 -111.9,568.8 -109.4,844.4 3.7,412.3 289.3,1001.7 430.7,1395.7 84.8,236.3 198.4,491.4 187.5,746.8 -9.2,217.1 -385.4,1234.2 -490.1,1506.6 -51.4,134 -118,272.6 -235.1,361.3 -277.2,209.9 -1056.3,503.3 -1413.4,665.1 -507.4,229.8 -1005,480.8 -1513.8,706.9 -85.6,443.4 -554.1,3279.2 -627.7,3402.3 -139.4,233.2 -2363.8,634.7 -2780.3,765.7 -344.9,108.5 -1648,1366.4 -2012,1685.2 -403.6,353.4 -816.3,695.5 -1217,1052.3 57.3,340.6 426,1733.5 410.4,1868.7 -8.5,72.7 -44.4,120.4 -98.6,166.4 -236.6,200.6 -1256.3,349.8 -1581.1,317.5 -278.8,-27.7 -606.5,-688.5 -788.6,-903 l -34.2,-39.9 c -886.2,-1.1 -848.8,-328.5 -1523.3,-545.7 -597.63,-192.5 -1234.91,-320.7 -1843.94,-480 -52.42,273.4 -22.18,714.5 -129.39,950.2 -65.9,144.9 -317.43,261.1 -462.56,318.9 -428.5,170.7 -899.39,-139.1 -1283.26,-313 -306.26,228.6 -631.42,624.7 -1005.36,715.7 -258.94,63.1 -546.58,72.3 -811.73,112.5 22.83,134 45.96,268.6 62.82,403.5 86.73,693.9 -406.41,960.1 -788.38,1445.6 315.93,400.1 636.63,818.6 924.92,1238.9 -54.16,499.6 -228.1,1003.9 -364.82,1485.7 578.87,442.1 1770.93,932.3 2181.71,1465.5 214.42,278.4 365.18,622.9 528.09,933.3 l 1735.78,445 c 269.84,68.2 604.51,115.5 857.22,229.5 79.55,35.8 152.7,91.6 200.9,165 69.8,106.4 86.3,236.3 84.1,360.8 -8.5,483.8 -308.04,1542.7 -408.53,2088.7 261.93,658.1 591.13,1602.5 757.73,2291.4 682.1,292 1360.8,628 2030.6,948.2 438.2,-208.1 1396,-543.3 1721.4,-813.5 431.9,-358.8 670,-1554.3 1162,-1746.1 100.6,2.6 180.1,27.2 271.2,70.4 280.3,133 543.9,324.1 816.6,475.4 437.9,242.9 935.9,464.2 1346.5,746.5 83.3,57.3 160.4,134.1 192.8,232.2 31.9,96.7 15.6,194.5 -20.9,287.4 -130.4,331.8 -537,832.3 -732.6,1182.8 435,141.6 899.3,204.8 1339.9,331.8 1078.1,310.7 2027.3,987.5 2831,1756.8"
         style="fill:currentColor;fill-opacity:1;fill-rule:nonzero;stroke:none"
         transform="matrix(0.13333333,0,0,-0.13333333,0,7333.3333)" />
      -->
    </g>
  </g>
</svg>
