<?xml version="1.0" encoding="UTF-8" standalone="no"?>
<!-- Created with Inkscape (http://www.inkscape.org/) -->

<svg
   version="1.1"
   id="svg1"
   width="500"
   height="500"
   viewBox="0 0 5333.3335 5333.3335"
   sodipodi:docname="999e72ae-3120-4981-b61b-76d9db3d86af.eps"
   xmlns:inkscape="http://www.inkscape.org/namespaces/inkscape"
   xmlns:sodipodi="http://sodipodi.sourceforge.net/DTD/sodipodi-0.dtd"
   xmlns="http://www.w3.org/2000/svg"
   xmlns:svg="http://www.w3.org/2000/svg">
  <defs
     id="defs1" />
  <sodipodi:namedview
     id="namedview1"
     pagecolor="#ffffff"
     bordercolor="#000000"
     borderopacity="0.25"
     inkscape:showpageshadow="2"
     inkscape:pageopacity="0.0"
     inkscape:pagecheckerboard="0"
     inkscape:deskcolor="#d1d1d1">
    <inkscape:page
       x="0"
       y="0"
       inkscape:label="1"
       id="page1"
       width="5333.3335"
       height="5333.3335"
       margin="0"
       bleed="0" />
  </sodipodi:namedview>
  <g
     id="g1"
     inkscape:groupmode="layer"
     inkscape:label="1">
    <g
       id="group-R5">
      <path
         id="path3"
         d="m 18821.6,6746.3 c 1,-53.3 -10.2,-107.2 34.8,-130 66.2,-33.6 85.7,36.5 119.2,70.2 98.9,99.7 196.9,200.2 294.1,301.4 52.3,54.3 158.8,111.7 37.1,185.9 -88.6,53.9 -192.2,182.7 -304.3,32.9 -103.5,-138.2 -164.6,-296.4 -180.9,-460.4 z m 469.2,2192.1 c 0,367.1 0,704 0,1047.2 -376.1,-181.4 -384.4,-714.3 0,-1047.2 z m -2978.1,20082.4 c 468.7,-148.2 489.7,-143.5 796.2,220.7 57.6,68.4 193.1,148.4 119.1,230.6 -92,102.2 -252,122.7 -393.1,63.2 -51.7,-21.8 -95.3,-71.1 -133.4,-115.6 -114.9,-134.4 -215.5,-281.5 -388.8,-398.9 z m 7351.2,4 c -169.6,181.5 -325.1,371 -505.5,533 -115,103.4 -236.3,-12.6 -348.3,-58.9 -37,-15.3 -90.4,-39.6 -55,-99.2 108,-181.7 249.5,-337.4 425.8,-449.5 105.7,-67.1 215.9,-0.3 306.3,72.2 58.9,47.3 114.2,-23.3 176.7,2.4 z m -3600,-24584.1 c 9.8,723 -8.7,1435.4 42.8,2146.2 7.3,100 -7.9,223.1 -128.9,221.2 -138.3,-2.2 -76.5,-138.5 -75.6,-211 8.2,-660.5 25.2,-1320.8 39.5,-1981.1 1.5,-73.2 -14.4,-155.6 122.2,-175.3 z m -212.8,4979.5 c 0.3,0 0.6,0 1,0 0,-237.4 0.9,-474.7 -0.4,-712.1 -0.7,-130.4 59.8,-230 188,-229.5 136.6,0.5 118.4,131 117.7,222.7 -3.6,473.3 13.6,946.6 -16.1,1420.2 -9,143.5 -99.7,124.4 -177,145.2 -125.6,33.6 -111,-65.4 -111.9,-134.5 -3.4,-237.3 -1.3,-474.7 -1.3,-712 z m 4257.8,20674.2 c -130.6,-11.6 -193.1,-113.7 -284.9,-151.5 -180.1,-74.1 -143.4,-155.4 -35.2,-256.7 146.1,-136.8 291.7,-274.1 440.1,-408.4 44.5,-40.3 94.8,-65.1 163,-38.4 145,56.7 295.3,97.8 435,171.2 130.5,68.5 157.6,122.1 17.4,211.2 -207.3,131.6 -408.2,273 -613.1,408.4 -42.3,28 -90.2,47.6 -122.3,64.2 z m -9048.8,-599.5 c 677.4,-404.1 590.5,-351.4 1049.8,93.4 58.4,56.6 109.2,121 162.5,182.7 29.1,33.8 57,68.4 34.9,118.9 -53.2,121.7 -386.5,228.3 -503.1,155.9 -257.5,-159.9 -497.8,-343.3 -744.1,-550.9 z M 17460,27066.4 c 404.7,-78.8 689.9,75.8 969.5,292.1 514.7,398.4 627,914.1 479.8,1542.4 -418.4,-662.2 -867.9,-1281.3 -1449.3,-1834.5 z m 3604.5,1896.5 c 0,-346.5 -1.8,-647.3 1.2,-947.9 0.8,-76.6 39.4,-144.2 92,-198.4 149.6,-154.2 285.7,-320.3 439.4,-471.8 186.5,-183.8 408.7,-257.4 652.6,-294.8 70.5,-10.8 168.2,-43.5 208.7,22.6 44.6,73 -42.2,132.7 -89.1,185 -108.5,121.4 -228.1,233 -335.9,354.9 -357.2,404 -628.1,870.9 -968.9,1350.4 z M 20243,14296.8 c 0,96.6 4.5,193.5 -0.9,289.9 -12.3,219.4 -198.9,229.5 -342.9,242.8 -174.8,16.2 -135.9,-144.8 -134.5,-245.7 10.3,-713.1 26.6,-1426.1 41.5,-2139.2 0.7,-37 -0.4,-75.9 10.4,-110.5 46.9,-150.5 186,-175.6 305.5,-173.6 119.8,2 71.6,127.1 73.2,198.1 14.7,646.1 -16.9,1293.3 47.7,1938.2 z m 4602.4,16681.9 c -89.4,26.2 -142.9,-18.5 -178.9,-92.6 -38.9,-80.2 -60.3,-174 -115.4,-240.1 -113.3,-135.6 -44.3,-211.8 66.9,-286.2 166.9,-111.6 331.4,-227.2 501.3,-334.1 385.7,-242.7 529.8,-220.8 853.6,118.2 51.3,53.6 102.5,107.9 158.6,156.2 86.8,74.8 79.5,142.1 -19.5,188.1 -411.3,191.4 -830.7,362.6 -1266.6,490.5 z M 14504,29788.8 c 57.3,28.1 113.7,48.7 162.4,80.9 204.3,135.4 408.2,271.7 608.9,412.5 294.7,206.6 290.2,206.7 123.6,536.7 -76,150.7 -162.4,196.9 -338.2,138.7 -360.6,-119.4 -698.6,-291.3 -1054.1,-420.9 -251,-91.5 -255.3,-106.3 -57.5,-297.7 128.1,-124 264.5,-239.7 400.7,-355 44.4,-37.6 99.9,-62.3 154.2,-95.2 z M 26167.7,27277 c -608.9,329.2 -1187.9,686.8 -1705.1,1136.5 -206,179.1 -424.9,219.7 -681.3,129.7 -125.2,-43.9 -153.5,-69.3 -55.5,-189.2 330,-403.7 752.3,-677.2 1200.5,-929 399.6,-224.6 812.3,-216.6 1241.4,-148 z m -9776.3,1201.8 c -521.9,138.7 -530.9,150.8 -893.4,-117.3 -473.1,-350 -952.5,-687.9 -1468.9,-971.4 -44.3,-24.3 -104.2,-44.4 -87.2,-111 12.5,-49 65.5,-55 107.9,-67.4 138.3,-40.4 277.7,-42.1 419.8,-19.2 556,89.7 995.8,404.5 1415.8,745.9 185.9,151 395.6,290.1 506,540.4 z m 9241,3425.1 c -263.2,6.5 -451.6,-22.5 -577.1,-223.7 -88.5,-141.9 -87.4,-229.5 92.2,-274.1 355.7,-88.4 683.5,-250.6 1018.7,-392.6 499.2,-211.4 512.7,-208.8 786.3,264.7 18.6,32.2 36.3,65 51.4,98.9 44.3,99.2 22.6,183.3 -83.8,214.7 -441.3,130.1 -878.1,281.4 -1287.7,312.1 z m -11137,6.2 c -485.6,-48.2 -956.1,-148.2 -1411.3,-319 -112.3,-42.1 -128.4,-106.9 -73.3,-206.9 86.5,-156.9 195.9,-296.5 306.8,-436.5 80,-101 154.4,-107.7 269.2,-59.2 396.2,167.3 799.1,319 1195,487 90.1,38.2 261.1,25.6 232,183.1 -26.9,145.6 -118.2,276.4 -277.2,321.9 -77.3,22.1 -161.4,20.6 -241.2,29.6 z m 4723.2,-18396.6 c -1.7,0 -3.4,0 -5.1,0 0,282.9 1.3,565.8 -0.5,848.8 -1.1,163.9 -77.3,217.2 -229.7,144.8 -181.8,-86.4 -365.8,-169.4 -524.4,-296.1 -341.5,-272.7 -391.4,-617.3 -154.9,-983.9 188.2,-291.7 480.7,-456.4 756.4,-642.2 122.4,-82.5 157.8,-11.8 158.1,102.1 0.5,275.5 0.1,551 0.1,826.5 z m -2941.3,13613.2 c 247.7,-3.5 426.2,44.6 589.6,192.4 225.4,203.9 443,409.5 646.4,638 298.2,335.1 534.4,710.3 792,1072 32.8,46.2 72.6,104.9 16.8,161.2 -133.4,134.7 -439,91.2 -555,-58.9 -221.3,-286.4 -441.7,-573.8 -697.4,-832.6 -318.7,-322.5 -637.6,-644 -989.6,-930.9 -40.6,-33.1 -86.2,-68.5 -72,-128.1 15.6,-65.6 70.5,-93.5 132.7,-102 58.7,-8 118.4,-9.7 136.5,-11.1 z m 7319.8,-42.2 c 95.4,12.6 191.3,22.6 286.2,38.6 70.2,11.8 171.1,-15.7 196.7,69.2 25.5,84.9 -73.8,118.9 -127.3,162.5 -455,370.7 -875.6,775.2 -1262.5,1217.6 -166.7,190.6 -302.7,404.5 -477.4,586.9 -112.2,117.2 -392.4,136 -488.8,25 -105.8,-121.7 36.6,-203.2 84.8,-286 373.4,-642.5 881.6,-1173.4 1421.6,-1676.2 101.1,-94.1 218.5,-156.5 366.7,-137.6 z M 20748,12887.6 c 0,-80 -2.7,-110.1 0.6,-139.4 7.9,-69.9 -31.5,-163.8 57.5,-197.5 65,-24.6 133.2,24.8 179.9,69.8 82.8,79.8 181.9,123.6 284.3,168.5 240.7,105.7 402.3,305.6 549.7,508.6 143.1,197.1 97.9,459.1 -47.1,663.1 -213.6,300.4 -547.3,392.1 -858.5,524.2 -144.3,61.2 -119,-59.2 -120.9,-132.8 -13.5,-505 20.9,-1011.3 -45.5,-1464.5 z m -416,6643 c 5.5,341.3 -5.5,355 -341.8,423.2 -316.6,64.3 -332.9,63.3 -312.4,-270.8 44.8,-728.1 33,-1456.6 45.1,-2185 2.2,-133.2 17.8,-267.8 42.6,-398.8 39.5,-208.4 238.2,-190.8 375.7,-212.2 151.3,-23.5 95.9,134.5 104.3,215.7 83.8,807.2 5.2,1620.4 86.5,2427.9 z M 11643.6,27731 c 100.4,-102.8 191.9,-110.8 275.6,-139.4 468.3,-159.9 908.1,-101.3 1365.1,89.8 691.6,289.3 1316.2,672.4 1911.4,1155 -139.9,80.7 -268.8,140.1 -380.5,222.9 -172.2,127.5 -316.7,98.3 -485.4,-15.7 -358.2,-242.1 -745.2,-436.4 -1128.2,-636.6 -494.3,-258.4 -1006.4,-477.5 -1558,-676 z m 13119.5,1115.6 c 65.6,-51.1 99.1,-79.6 134.9,-104.8 392.8,-276.8 790.1,-542.7 1218.3,-767.6 614,-322.5 1212,-654.9 1940.9,-387.8 82.7,30.3 196.5,17.6 206,129.1 9.1,107.3 -108.5,110.2 -177.8,136.5 -866.6,329.6 -1679.3,764.6 -2466.5,1249.9 -86.4,53.3 -173,93.8 -272.1,44.3 -185.4,-92.6 -368.9,-189.1 -583.7,-299.6 z m -5746,-18247.9 c -200.5,83.2 -386.5,141.2 -552.8,234.5 -188.6,105.8 -299.4,48.1 -404.1,-115.3 -591.1,-923 -183.8,-1773.6 529.3,-2406.3 384.3,-340.9 852.7,-566.2 1312.4,-797.3 357.2,-179.6 725.1,-344.4 1016.9,-634.1 90.4,-89.7 150,-216.7 279.9,-282.1 31.1,198.9 17.7,236.6 -83.9,389.7 -348.9,525.4 -907.8,756.6 -1442.5,1013.1 -284.4,136.4 -542.5,305.7 -777.4,507 -378.4,324.2 -533.8,733.9 -441.5,1238.7 65.3,356.9 312.5,580.4 563.7,852.1 z m 153.3,7212.6 c -29.1,571.9 -53.7,1144.1 -42.3,1716.8 3.1,155.1 -54.2,206.1 -200.6,154.2 -125.7,-44.5 -253.2,-84.8 -376.6,-134.8 -407.4,-164.9 -811.6,-337 -1115.8,-672.5 -163.5,-180.4 -212.3,-409.5 -90.8,-571.9 96.1,-128.3 192.4,-263.1 329.2,-359.1 348.2,-244.3 725.7,-432.5 1117.4,-595.1 381.8,-158.5 381.2,-159.9 379.6,261.5 -0.3,67 -0.1,133.9 -0.1,200.9 z m 1665.1,67.3 c 0,-133.8 1.1,-267.5 -0.3,-401.3 -1.7,-174.6 57.2,-258.1 244,-176.5 102,44.5 208.3,79.8 313.9,115.8 408.2,139.2 755.6,391 1119.2,610.9 215.9,130.6 335.2,492.5 236.6,660 -79.1,134.5 -176.3,256.8 -310.6,345.3 -420,276.7 -878.2,466 -1359.2,606.5 -150.9,44.1 -203.1,-4.8 -198.9,-157.7 14.9,-534.9 -20.7,-1068.8 -44.7,-1603 z M 29453.1,28132 c 449.1,-1.8 869.7,107.8 1259.2,332 45.1,25.9 100.9,45.8 92.4,110.7 -7.7,58.4 -53.6,86.7 -107.4,100.3 -130,32.8 -261.1,61.4 -390.3,97.2 -1098.9,305 -2125.9,791.4 -3159.3,1259.7 -406.4,184.1 -400.3,196 -735.4,-109.8 -82.5,-75.2 -168.5,-146.7 -254.4,-218.1 -207.6,-172.6 -209.3,-195.9 21.1,-317.2 504.1,-265.5 1001.2,-547.6 1519.6,-782.2 556.1,-251.5 1128.2,-474.9 1754.5,-472.6 z m -20373.4,450.1 c 216.83,-103.9 426.3,-228.7 651.88,-307.6 622.62,-217.6 1251.82,-170.8 1863.92,38.2 813.2,277.8 1573.6,674 2321.7,1093.6 150.5,84.4 170.7,166.2 13.6,250.7 -181.5,97.8 -325.4,240.6 -452.9,392.4 -133.4,158.9 -253.6,155.7 -427.4,74.6 -640.1,-298.7 -1279.8,-600.3 -1932.7,-869.2 -657.2,-270.7 -1314.18,-552.7 -2038.1,-672.7 z m -2012.67,1043.1 c 511.85,-352.6 1081.37,-503.2 1695.66,-466.8 639.19,37.9 1240.61,238.2 1828.31,477.7 729,297.1 1453,606.5 2181.7,904.6 158.7,64.9 196.2,133.1 79.2,276 -88.6,108.3 -162.2,231.4 -226.9,356 -89,171.4 -201.6,201.2 -383,134.6 -857.2,-314.4 -1716.4,-623.7 -2579.13,-922.5 -848.08,-293.7 -1686.38,-624.9 -2595.84,-759.6 z m 25933.27,20.2 c -296.2,54.8 -534.4,79.7 -761.4,144 -912.9,258.6 -1816.1,548 -2707.1,875 -608.4,223.4 -1220,438.2 -1828.8,660.4 -101.8,37.1 -184.3,49.7 -251.1,-57.3 -106.5,-170.5 -217.9,-338 -327.3,-506.7 -34.4,-53.1 -47.3,-69.5 28.3,-126.8 161.9,-122.6 348.4,-184.4 525.3,-263.3 714.3,-318.5 1435.3,-622.5 2173.2,-882.7 656.5,-231.5 1322,-425.4 2032.2,-301.3 383.7,67 745.7,189.7 1116.7,458.7 z m -14480.2,4642.5 c -11.2,-810.7 629.3,-1500.5 1494.5,-1516.1 832.6,-15 1507.3,695.1 1514.5,1479.6 6.9,755.6 -573.2,1419.9 -1448.7,1458.5 -890.5,39.3 -1554.5,-717.4 -1560.3,-1422 z M 22258.6,9730.3 c 7.3,479.1 -138.7,752.4 -370,993.7 -265.3,276.8 -611.3,418.4 -952.6,554 -421.2,167.4 -863.4,281.3 -1289.4,437.8 -595.7,218.8 -1160.1,489.7 -1615.7,956.3 -561.7,575.2 -566.8,1336.4 6.6,1896.7 223.5,218.4 495.1,353.4 775.4,477.1 46.7,20.7 117,30.6 119.1,87.4 2.9,79.2 -81.8,73.7 -133.3,91.7 -280.6,98.2 -563.6,189.7 -843.6,289.5 -89.4,31.9 -166.2,45.9 -252.2,-12.6 -891.2,-605.9 -1281.7,-1545.6 -811.7,-2573.4 345.8,-756.2 991.2,-1209.2 1715.1,-1558.1 436.9,-210.6 899.5,-357 1364.9,-495 363.2,-107.8 733.4,-201.3 1050,-429.5 525.7,-379 689.7,-1029.8 395.5,-1605.9 -134.8,-264.1 -322.8,-483.8 -574.5,-641.2 -129.4,-81 -82.4,-116.8 12.4,-181.7 151.5,-103.7 236.1,18.1 333.1,85.5 617.8,429.5 1010.7,997.1 1070.9,1627.7 z m -995.4,15902.5 c 240.5,160.9 477.4,327.1 722.5,480 122.1,76.2 141.6,200.4 139.3,308.2 -2.6,117.7 -140.9,74.9 -218.2,95.9 -264.5,71.9 -493.6,201.7 -692.4,387.6 -41.1,38.5 -61.9,116.7 -136.7,88.3 -71.3,-27.2 -48.7,-100.3 -51.7,-157.2 -25.1,-482.9 -25.4,-966.4 -47.2,-1449.7 -39.1,-869.4 -40.4,-1740.4 -58.3,-2610.8 -1.2,-59.4 -7.7,-118.8 -14.7,-177.8 -29.4,-245.6 -7.8,-261.1 231.3,-214.1 608.1,119.3 1201.4,292.8 1787.4,489.9 636.4,214 1261.4,458.9 1818.6,842.4 264.1,181.8 518.6,381.4 617,711.4 60.7,203.4 -23.8,315.3 -233.7,319.4 -200,4 -377.3,-71.8 -560,-136.5 -489.4,-173.2 -978.4,-288.5 -1450.1,55.4 -78.5,57.2 -174,49.8 -258.9,20.1 -206.8,-72.4 -424.1,-73 -636.8,-102.9 -337.3,-47.5 -353.9,-31.8 -523.9,271.8 -144.5,257.8 -234.1,546.1 -433.5,778.6 z m -2185.9,-2636.3 c -13,0 -26,0 -39.1,0.1 0,513.3 5.5,1026.7 -1.3,1539.9 -10.2,774.2 -28.8,1548.2 -45.1,2322.3 -1.2,57.3 21.1,133.4 -39.5,164.1 -78.7,39.9 -118.5,-43 -161.8,-86.5 -273.9,-275 -570,-494.7 -990.5,-445.5 -47.6,5.6 -116.2,16.1 -138,-44.7 -21.9,-61.2 39.1,-89.6 79.3,-119.3 251.5,-185.4 488,-394.9 768.5,-535.5 182.1,-91.3 185.6,-204.3 101.6,-360.5 -91.7,-170.4 -179,-343.3 -263.8,-517.3 -187.1,-384 -185.9,-384.1 -609.9,-316.2 -376.8,60.4 -736.4,142.9 -1119.7,-63.5 -327,-176.1 -698.8,-60.1 -1044.3,52.3 -212,69 -417.8,164 -645.4,175.1 -227.8,11.2 -347.6,-146.7 -274.8,-360.8 36.5,-107.6 104.3,-196.2 173.7,-284.5 236.1,-300.7 558.6,-492.6 886.8,-662.8 648.9,-336.6 1337.6,-574.5 2041.6,-773.9 379.2,-107.4 753.9,-230.3 1138.7,-318.7 131.5,-30.2 192.7,-3.3 185,144.4 -8.6,163.4 -2,327.6 -2,491.5 z m 368,8398.5 c 9.1,-469.8 27.8,-834.5 36.3,-1198.4 29.2,-1242.7 64.9,-2485.4 91,-3728.1 28.4,-1354.6 39.1,-2709.4 90.1,-4063.6 7.9,-209.9 77,-300.6 277.7,-307.2 44.3,-1.5 88.8,-11.4 132.2,-21.6 237.3,-55.7 255.9,-41.5 263.7,198.6 27.6,855.3 61,1710.5 82.5,2566 36.2,1443.8 62.1,2887.8 97.9,4331.6 23.6,952.3 54.4,1904.4 88,2856.4 6.4,181.3 -55.6,241 -235.7,209.4 -228.6,-40.2 -461.4,-43 -689.7,3 -167.3,33.7 -238.2,-21 -235.2,-191.4 4.6,-253.3 1.2,-506.6 1.2,-654.7 z m 1819.1,-9602.5 c 586.7,-185.2 1118.6,-352.8 1650.4,-521.1 75.2,-23.7 146.4,-6.6 219.5,11.7 760.5,189.5 1505,433.4 2197.5,797.6 645.7,339.5 1243.2,729.7 1604.2,1427.9 653.9,1264.7 -151.4,2585.6 -1421.9,2806.2 -736.4,127.9 -1484.6,95.6 -2229.4,85.5 -130,-1.7 -222.3,-64 -308.9,-153.8 -243.2,-252.3 -510.8,-477.6 -789.9,-689 -74.1,-56.1 -187.3,-84.5 -120.8,-218.7 58.5,-118 139.2,-194.1 281.4,-166 146,28.9 291.8,58.8 437.1,90.8 221.1,48.8 433.4,87.1 633.5,-81.8 234,-197.6 504.1,-188.2 779,-89.1 133.1,47.9 267.9,91.1 400.7,139.5 198.3,72.2 403.4,109.1 613.2,102.9 414,-12.4 743,-357.3 720.5,-773.6 -23.3,-432.4 -235,-793.6 -556.2,-1058.6 -717.9,-592.3 -1577.3,-916.5 -2447.3,-1214.7 -528.4,-181 -1071.4,-312 -1662.6,-495.7 z m -2511.8,-1577.2 c -534.5,131.4 -1006.1,240.3 -1473.1,365.9 -172.2,46.3 -324.9,23.5 -473,-54.3 -523.4,-275.1 -940,-665.8 -1129.7,-1231.2 -233.9,-697.6 -96.5,-1350 359.6,-1931.3 411.3,-524.3 971.3,-849.4 1564.8,-1107.9 976.6,-425.5 2001.1,-721.9 3011.2,-1056.6 409.1,-135.5 812.6,-286.3 1183.1,-516.2 360.2,-223.6 614.2,-519 661,-948.7 50,-459.1 -165.9,-813.4 -480.5,-1127.6 -257.9,-257.5 -563.5,-434 -889.7,-583.9 -45.6,-20.9 -110.3,-34.7 -115.9,-94 -7.1,-76.2 70.3,-90.7 119.1,-114.6 167,-82 339,-153.8 507.1,-233.6 81.3,-38.6 159.8,-39.5 235.2,3.9 469.4,269.8 888.8,595 1154.1,1080.9 342.2,626.7 463.6,1282.3 128.4,1942.1 -313.7,617.5 -897.4,930.6 -1509.5,1181.1 -917.3,375.4 -1885.4,603.3 -2813.1,949.8 -524.6,196 -1029.9,433.1 -1474.1,776.4 -756.3,584.5 -822.9,1364 -52.1,1978.3 416.3,331.7 912.6,545.4 1487.1,721.5 z m 16477.2,10945.5 c -234.4,44.6 -413.6,40.6 -586.4,15.1 -471.4,-69.5 -937.6,-2.5 -1403.9,37.6 -816.4,70.3 -1580.8,358.3 -2352.8,603.3 -1093,346.9 -2174.9,728.9 -3266.7,1079.7 -758,243.6 -1517.6,489.6 -2319.8,554.2 -246.8,19.8 -481.2,20.8 -714.5,-105.3 -437.1,-236.1 -694.4,-614.4 -838.2,-1060.8 -253,-785.2 -745.6,-1327.6 -1513,-1621.6 -242.4,-92.9 -489,-175.2 -735.5,-256.6 -420.9,-139 -417.5,-136.9 -396.4,-578.2 6.6,-138.6 47,-182.9 190.5,-151.2 589.4,130.2 1166.5,304.8 1733.1,507.9 334.8,120 679.5,263.8 896.1,564.9 229.7,319.1 423,665.4 554.3,1039.6 156.3,445.3 561.3,703.1 1031.4,677.4 770,-42.1 1489.4,-286.9 2201,-547.9 1273.4,-466.9 2545.5,-936.3 3838.3,-1347.7 661.4,-210.5 1322.1,-378.6 2034,-316.7 677.7,58.8 1147.9,435.1 1648.5,906.3 z m -29221.25,28.4 c -395.49,0 -686.32,0.5 -977.14,-0.5 -43.6,-0.2 -93.43,5.6 -122.44,-37.1 -25.91,-38.2 -5.26,-80.8 25.88,-96.5 199.12,-100.3 281.17,-321.2 470.5,-436.6 521.64,-318.1 1076.63,-454.1 1686.97,-379.3 394.24,48.3 770.41,153.1 1150.22,266.6 834.81,249.4 1657.36,531.2 2473.06,835.4 299.3,111.6 589.7,267.5 889.9,347.8 504.6,135.1 977.7,350.7 1477.1,495.2 509.1,147.3 1020.5,274.3 1550.1,286.3 185.3,4.2 402.6,1.4 545.9,-152.3 214.1,-229.4 379,-494.5 496.5,-788.2 184.5,-461.3 410.2,-894.3 879.4,-1133.8 689,-351.7 1432.7,-541.2 2179.5,-719.9 49.1,-11.7 101.7,-29.6 144.9,20.5 123.8,143.3 -7.5,602.1 -191.3,654.1 -345,97.7 -678.7,226.6 -1008.4,365.1 -506,212.8 -939.4,514.7 -1176.5,1032.7 -133.2,291 -244.5,592.1 -381.4,881.2 -289.5,611.5 -754.1,893.8 -1365.1,830.5 -266.4,-27.6 -535.9,-56.6 -794.6,-122.1 -757.5,-191.4 -1498.9,-436 -2242.5,-677 -998.3,-323.6 -1989.28,-670.7 -2993.43,-976 -919.54,-279.5 -1834.01,-599.7 -2717.12,-496.1 z M 20901.3,16652 c 328.9,-169.5 656.3,-210.2 933.4,-372.9 220.6,-129.4 438.6,-103 661.9,0.3 571.3,264.3 1082.6,607 1505.7,1080.2 459.1,513.5 604.5,1519 295.8,2105.1 -310.6,589.6 -810.7,956.1 -1407.5,1210.7 -826.1,352.3 -1691.6,582.8 -2564.1,775.8 -1122,248.2 -2233.9,528.4 -3326.9,882.7 -802.9,260.3 -1596.7,545.3 -2260.1,1087.8 -312.6,255.6 -557.2,560.8 -652.9,982.7 -130.6,575.6 396.9,1002.2 885.5,922.8 282,-45.8 554.9,-122.2 819,-219.7 305.8,-112.9 583.8,-99.6 849.6,84.6 160.9,111.6 328.2,120 511.5,72.5 187.2,-48.6 375.3,-97.1 571,-103 123.9,-3.8 188.3,65.6 236.4,168.7 54.3,116.3 -31.4,162.4 -100.4,216.4 -262.8,206 -551.8,379.9 -779.2,629.6 -174.7,191.7 -392.7,237.8 -646.1,232.2 -543.7,-12.1 -1087.1,-17.8 -1631,-41 -626.7,-26.8 -1119,-295.5 -1507,-756.2 -615.3,-730.7 -551,-1831.6 84.5,-2562.5 528,-607.1 1210.4,-956.5 1928.7,-1255.1 972.6,-404.4 1991.2,-661.7 3013.7,-902.9 1162.4,-274.2 2347.4,-462.4 3466.4,-902.4 375.4,-147.6 736.6,-322.5 1060.9,-567.9 452.6,-342.4 604.7,-819.3 399,-1297.6 -150.3,-349.4 -432.5,-580.2 -741.4,-779.1 -479.3,-308.7 -1016.5,-489.6 -1606.4,-691.8 z m 2893.4,4188.2 c 202.5,-187.3 436.9,-344.6 616.7,-565.3 568.9,-698.3 742,-1480.5 503.7,-2344.8 -189.5,-687.6 -622.9,-1204.7 -1205.2,-1600 -214.6,-145.7 -415.1,-312.1 -656.3,-421.8 -145.2,-65.9 -206.7,-169.5 -34.5,-312.5 491.2,-408 772.9,-934.7 834.7,-1573.6 41,-424.3 -44.9,-831 -192.9,-1223.9 -241.8,-642.3 -690.8,-1121.4 -1239.5,-1514.5 -110.7,-79.2 -157.4,-130.4 -42.3,-256.3 377.4,-412.8 487.2,-909.4 403.7,-1452.4 -122.7,-797.3 -581.9,-1388.3 -1183.6,-1885.3 -93.7,-77.3 -149.6,-129.4 -69.9,-251.7 336.6,-516.8 345.4,-1079.6 215.5,-1657.8 -120.6,-536.7 -368.9,-1003.4 -773.2,-1381.9 -25.9,-24.2 -60.9,-38.7 -106.1,-66.5 -19.3,612.6 102.4,1222.5 -152.1,1820.5 -85.6,-73.7 -58.6,-151.6 -58.6,-217.5 -0.1,-536.4 -0.4,-1072.8 8.1,-1609.1 2.6,-161.9 -75,-261.4 -192.7,-354.2 -415.2,-327.8 -406.1,-317.4 -842.7,-42.4 -185.1,116.7 -239.5,247.9 -239.3,454.8 0.4,513.4 -22.7,1026.8 -37.1,1540.2 -1.3,43.3 5.7,90.1 -32.2,124.5 -146.2,-117.9 -181.9,-271.1 -183.9,-798.8 -1.1,-280.3 -0.2,-560.6 -0.2,-855.5 -227.5,82.1 -325.5,264.6 -434.2,427.6 -483.2,724.4 -610.4,1505.2 -348.5,2341.9 8.9,28.4 19.3,56.5 30.9,83.9 160.8,377.8 157.2,373.6 -147.3,639.2 -561.8,490 -969,1063.6 -1003,1844.8 -20.9,481.2 108.4,914.6 381.9,1303.2 95.4,135.6 83.4,191.5 -53.4,295 -795.4,601.9 -1386.8,1344 -1416.6,2389.6 -21.5,755.8 240.7,1416.6 842.9,1909.3 206,168.6 208.5,157 -19.8,285.4 -774.8,435.7 -1456.7,970.2 -1780.2,1836.4 -294.4,788.2 -217.1,1548 237.6,2265.8 165.5,261.4 375,476.2 618.3,663.1 50.9,39.1 132,68.4 124.6,145.3 -9,92.1 -103.2,97.3 -170.6,119.3 -745.4,244 -1467.3,543.8 -2130.2,964.7 -661.9,420.2 -1203.1,960.3 -1431.6,1733.4 -333,1126.8 -0.9,2073.6 948.8,2801.1 290.9,222.8 288.1,219.1 9.2,430.4 -138.8,105.2 -276.5,155.3 -454.7,112.8 -590.4,-141 -1187.9,-37 -1655.7,280.6 -368.3,249.9 -725.9,290.8 -1117.9,334.5 -706.37,78.7 -1312.44,367.6 -1809.86,875.2 -102.29,104.4 -228.46,134.1 -359.38,162.5 -614.05,133 -1183.57,358.2 -1622.45,827.4 -165.23,176.6 -357.54,284.3 -584.99,348.4 -199.85,56.2 -380.21,135 -559.86,260.4 -453.67,316.5 -825.52,695.4 -1135.91,1149.9 -101.47,148.6 -111.72,316.4 -183.5,468.6 -56.25,119.3 62.73,130.2 144.01,125.5 267.59,-15.3 534.54,-41.8 802.13,-57.3 759.36,-44.2 1523.31,-102.2 2272.07,66.3 864.29,194.6 1706.07,470.7 2543.51,762.4 469.83,163.6 949.13,303.8 1422.73,459.1 790.5,259.3 1575.4,536 2382.6,742.9 463.6,118.9 929.2,206.7 1409.5,224.8 706.9,26.8 1207.2,-298.6 1572,-877.1 203.3,-322.2 357.8,-668.7 495.7,-1021.1 130.9,-334.6 338.9,-592.7 656.7,-757.6 364.7,-189.4 749.3,-328.7 1146.3,-434.9 101.2,-27 144,12.4 141.1,107.7 -14.6,483.5 -30.5,966.9 -48.8,1450.3 -3.5,93.2 -85.3,133.8 -145.9,187.7 -775.1,688.4 -975.2,1793.9 -455.6,2615.2 784.2,1239.8 2490.6,1322.3 3406.1,192.6 532.9,-657.7 578.3,-1526.4 132.6,-2259.7 -138.8,-228.3 -283.5,-450.3 -512.4,-601.8 -62.2,-41.2 -73,-106.9 -83.1,-175 -68.1,-459.6 -32.5,-922.3 -43.2,-1383.5 -3.3,-140.2 64.5,-165 185.4,-123.2 345.3,119 692.2,232.8 1021.8,392.9 346.8,168.6 573.8,445.6 715.6,795.4 184.8,455.6 368.7,908.3 702.7,1284.6 328.2,369.8 723.9,591.1 1222.1,603.2 795.4,19.3 1549.7,-195.9 2295.1,-434.8 1270.3,-407.2 2531,-844.5 3803.7,-1244 729,-228.9 1450.9,-498.7 2221,-571.3 617.5,-58.3 1235.8,-43.7 1853.7,-5.5 252.6,15.5 504.5,42.6 756.9,62.5 156.4,12.3 210.2,-32.3 163.7,-208.1 -100.3,-378.6 -344.2,-660.4 -588.9,-942.3 -404.8,-466.1 -908.3,-779.3 -1508.9,-931.5 -97.3,-24.7 -174.8,-70.7 -242,-148 -470.3,-541 -1069.6,-845.9 -1774.5,-947.8 -133.7,-19.4 -236.4,-76.6 -328.8,-170.5 -608.7,-617.9 -1361.8,-885.8 -2215.7,-900.9 -159,-2.8 -309.2,-3.5 -437,-123.3 -365.8,-342.8 -831.7,-436.3 -1304.9,-501.3 -124.4,-17.1 -264.5,-35.6 -377.8,3.4 -315.5,108.8 -567.6,-40.3 -830.5,-160.7 -52.8,-24.1 -129.5,-38.8 -137.7,-102.1 -10.6,-82.4 77.1,-97.6 131.1,-132.1 563.9,-360.3 990.4,-823.3 1167,-1490.5 233.7,-882.6 -13.6,-1652.3 -552,-2343.5 -514.1,-660.1 -1241.7,-1029.9 -1984.9,-1363.4 -380.4,-170.6 -769.2,-325.3 -1175.6,-429 -47.4,-12.1 -106.1,-16.1 -133.3,-88.6"
         style="fill:#F7D7B6;fill-opacity:1;fill-rule:nonzero;stroke:none"
         transform="matrix(0.13333333,0,0,-0.13333333,0,5333.3333)" />
      <path
         id="path4"
         d="m 16646.2,25502.2 c -162.7,7 -306.3,159.2 -303.4,321.8 2.7,154 167.3,306.6 323.4,299.8 162.5,-7.1 320.2,-197.8 310.5,-374.4 -11.9,-214.2 -168.4,-234.1 -330.5,-247.2"
         style="fill:#F7D7B6;fill-opacity:1;fill-rule:nonzero;stroke:none"
         transform="matrix(0.13333333,0,0,-0.13333333,0,5333.3333)" />
      <path
         id="path5"
         d="m 23333.3,25489.9 c -150.4,-1.8 -310.9,155.4 -322,315.3 -8.9,129.5 195.4,318.3 345.5,319.1 147.4,0.8 321.1,-169.9 321.8,-316.2 0.7,-151.3 -178.2,-316.2 -345.3,-318.2"
         style="fill:#F7D7B6;fill-opacity:1;fill-rule:nonzero;stroke:none"
         transform="matrix(0.13333333,0,0,-0.13333333,0,5333.3333)" />
    </g>
  </g>
</svg>
