<?xml version="1.0" encoding="UTF-8" standalone="no"?>
<!-- Created with Inkscape (http://www.inkscape.org/) -->

<svg
   version="1.1"
   id="svg1"
   width="500"
   height="500"
   viewBox="0 0 2666.6667 2666.6667"
   sodipodi:docname="03_03_23_11_05.eps"
   xmlns:inkscape="http://www.inkscape.org/namespaces/inkscape"
   xmlns:sodipodi="http://sodipodi.sourceforge.net/DTD/sodipodi-0.dtd"
   xmlns="http://www.w3.org/2000/svg"
   xmlns:svg="http://www.w3.org/2000/svg">
  <defs
     id="defs1" />
  <sodipodi:namedview
     id="namedview1"
     pagecolor="#ffffff"
     bordercolor="#000000"
     borderopacity="0.25"
     inkscape:showpageshadow="2"
     inkscape:pageopacity="0.0"
     inkscape:pagecheckerboard="0"
     inkscape:deskcolor="#d1d1d1">
    <inkscape:page
       x="0"
       y="0"
       inkscape:label="1"
       id="page1"
       width="2666.6667"
       height="2666.6667"
       margin="0"
       bleed="0" />
  </sodipodi:namedview>
  <g
     id="g1"
     inkscape:groupmode="layer"
     inkscape:label="1">
    <g
       id="group-R5">
      <path
         id="path2"
         d="m 5125.56,3804.7 c 5.12,30.6 -6.54,61.3 -30.63,80.8 -1216.55,982.7 -2150.31,2339.4 -2603.92,3960.1 -1218.83,4354.8 1511.65,8881.2 6043.03,9761 3793.06,736.4 7567.96,-1446 8831.16,-5097.6 503.7,-1456.2 553,-2946.8 230.7,-4327.5 -7,-30.2 2.7,-61.6 25.5,-82.5 0.6,-0.6 1.2,-1.1 1.7,-1.6 48.5,-44.4 126.7,-20.2 141.6,43.8 295.1,1263.4 285.3,2616.8 -89.1,3954.4 -1186.5,4239.1 -5584.8,6713.7 -9823.87,5527.3 C 3612.62,16436.4 1137.96,12038.1 2324.42,7799 2788.2,6142 3742.8,4754.7 4986.75,3750.1 c 51.08,-41.2 127.64,-12.1 138.48,52.7 0.11,0.6 0.22,1.3 0.33,1.9"
         style="fill:#F7D7B6;fill-opacity:1;fill-rule:nonzero;stroke:none"
         transform="matrix(0.13333333,0,0,-0.13333333,0,2666.6667)" />
      <path
         id="path3"
         d="m 5125.56,3804.7 c 5.12,30.6 -6.54,61.3 -30.63,80.8 -1216.55,982.7 -2150.31,2339.4 -2603.92,3960.1 -1218.83,4354.8 1511.65,8881.2 6043.03,9761 3793.06,736.4 7567.96,-1446 8831.16,-5097.6 503.7,-1456.2 553,-2946.8 230.7,-4327.5 -7,-30.2 2.7,-61.6 25.5,-82.5 0.6,-0.6 1.2,-1.1 1.7,-1.6 48.5,-44.4 126.7,-20.2 141.6,43.8 295.1,1263.4 285.3,2616.8 -89.1,3954.4 -1186.5,4239.1 -5584.8,6713.7 -9823.87,5527.3 C 3612.62,16436.4 1137.96,12038.1 2324.42,7799 2788.2,6142 3742.8,4754.7 4986.75,3750.1 c 51.08,-41.2 127.64,-12.1 138.48,52.7 0.11,0.6 0.22,1.3 0.33,1.9 z"
         style="fill:none;stroke:#F7D7B6;stroke-width:635.955;stroke-linecap:butt;stroke-linejoin:miter;stroke-miterlimit:10;stroke-dasharray:none;stroke-opacity:1"
         transform="matrix(0.13333333,0,0,-0.13333333,0,2666.6667)" />
      <path
         id="path4"
         d="M 17255.5,11468.7 C 18356.6,7534.6 16060,3452.8 12125.9,2351.7 8191.8,1250.6 4109.97,3547.2 3008.87,7481.3 c -1101.1,3934.1 1195.51,8015.9 5129.61,9117 3934.12,1101.1 8015.92,-1195.5 9117.02,-5129.6"
         style="fill:none;fill-opacity:1;fill-rule:nonzero;stroke:none"
         transform="matrix(0.13333333,0,0,-0.13333333,0,2666.6667)" />
      <path
         id="path5"
         d="M 17255.5,11468.7 C 18356.6,7534.6 16060,3452.8 12125.9,2351.7 8191.8,1250.6 4109.97,3547.2 3008.87,7481.3 c -1101.1,3934.1 1195.51,8015.9 5129.61,9117 3934.12,1101.1 8015.92,-1195.5 9117.02,-5129.6 z"
         style="fill:none;stroke:none;stroke-width:627.755;stroke-linecap:butt;stroke-linejoin:miter;stroke-miterlimit:10;stroke-dasharray:none;stroke-opacity:1"
         transform="matrix(0.13333333,0,0,-0.13333333,0,2666.6667)" />
      <path
         id="path6"
         d="m 8353.13,15831.4 v 0 c -116.27,-32.5 -236.91,35.4 -269.45,151.6 l -255.58,913.2 c -32.54,116.3 35.33,236.9 151.6,269.4 v 0 c 116.27,32.6 236.9,-35.3 269.44,-151.6 l 255.58,-913.1 c 32.54,-116.3 -35.34,-236.9 -151.59,-269.5"
         style="fill:#F7D7B6;fill-opacity:1;fill-rule:nonzero;stroke:none"
         transform="matrix(0.13333333,0,0,-0.13333333,0,2666.6667)" />
      <path
         id="path7"
         d="m 8353.13,15831.4 v 0 c -116.27,-32.5 -236.91,35.4 -269.45,151.6 l -255.58,913.2 c -32.54,116.3 35.33,236.9 151.6,269.4 v 0 c 116.27,32.6 236.9,-35.3 269.44,-151.6 l 255.58,-913.1 c 32.54,-116.3 -35.34,-236.9 -151.59,-269.5 z"
         style="fill:none;stroke:#F7D7B6;stroke-width:33.7437;stroke-linecap:butt;stroke-linejoin:miter;stroke-miterlimit:10;stroke-dasharray:none;stroke-opacity:1"
         transform="matrix(0.13333333,0,0,-0.13333333,0,2666.6667)" />
      <path
         id="path8"
         d="m 12066.4,15723.5 v 0 c -109.5,50.9 -156.9,180.9 -106,290.4 l 400,859.8 c 50.9,109.4 180.9,156.9 290.4,106 v 0 c 109.4,-50.9 156.9,-181 106,-290.4 l -400,-859.8 c -50.9,-109.5 -180.9,-157 -290.4,-106"
         style="fill:#F7D7B6;fill-opacity:1;fill-rule:nonzero;stroke:none"
         transform="matrix(0.13333333,0,0,-0.13333333,0,2666.6667)" />
      <path
         id="path9"
         d="m 12066.4,15723.5 v 0 c -109.5,50.9 -156.9,180.9 -106,290.4 l 400,859.8 c 50.9,109.4 180.9,156.9 290.4,106 v 0 c 109.4,-50.9 156.9,-181 106,-290.4 l -400,-859.8 c -50.9,-109.5 -180.9,-157 -290.4,-106 z"
         style="fill:none;stroke:#F7D7B6;stroke-width:33.7437;stroke-linecap:butt;stroke-linejoin:miter;stroke-miterlimit:10;stroke-dasharray:none;stroke-opacity:1"
         transform="matrix(0.13333333,0,0,-0.13333333,0,2666.6667)" />
      <path
         id="path10"
         d="m 5195.1,13800.3 v 0 c 67.13,100.3 40.2,236.1 -60.15,303.2 l -788.15,527.3 c -100.35,67.1 -236.13,40.2 -303.26,-60.2 v 0 c -67.13,-100.3 -40.2,-236.1 60.15,-303.2 l 788.16,-527.3 c 100.35,-67.1 236.12,-40.2 303.25,60.2"
         style="fill:#F7D7B6;fill-opacity:1;fill-rule:nonzero;stroke:none"
         transform="matrix(0.13333333,0,0,-0.13333333,0,2666.6667)" />
      <path
         id="path11"
         d="m 5195.1,13800.3 v 0 c 67.13,100.3 40.2,236.1 -60.15,303.2 l -788.15,527.3 c -100.35,67.1 -236.13,40.2 -303.26,-60.2 v 0 c -67.13,-100.3 -40.2,-236.1 60.15,-303.2 l 788.16,-527.3 c 100.35,-67.1 236.12,-40.2 303.25,60.2 z"
         style="fill:none;stroke:#F7D7B6;stroke-width:33.7437;stroke-linecap:butt;stroke-linejoin:miter;stroke-miterlimit:10;stroke-dasharray:none;stroke-opacity:1"
         transform="matrix(0.13333333,0,0,-0.13333333,0,2666.6667)" />
      <path
         id="path12"
         d="m 15001.2,13822.8 v 0 c -82.9,87.9 -78.8,226.2 9,309 l 690,650.6 c 87.8,82.8 226.2,78.7 309,-9.1 v 0 c 82.8,-87.9 78.7,-226.2 -9.1,-309 l -689.9,-650.6 c -87.9,-82.8 -226.2,-78.7 -309,9.1"
         style="fill:#F7D7B6;fill-opacity:1;fill-rule:nonzero;stroke:none"
         transform="matrix(0.13333333,0,0,-0.13333333,0,2666.6667)" />
      <path
         id="path13"
         d="m 15001.2,13822.8 v 0 c -82.9,87.9 -78.8,226.2 9,309 l 690,650.6 c 87.8,82.8 226.2,78.7 309,-9.1 v 0 c 82.8,-87.9 78.7,-226.2 -9.1,-309 l -689.9,-650.6 c -87.9,-82.8 -226.2,-78.7 -309,9.1 z"
         style="fill:none;stroke:#F7D7B6;stroke-width:33.7437;stroke-linecap:butt;stroke-linejoin:miter;stroke-miterlimit:10;stroke-dasharray:none;stroke-opacity:1"
         transform="matrix(0.13333333,0,0,-0.13333333,0,2666.6667)" />
      <path
         id="path14"
         d="m 3423.13,10322 v 0 c 25.19,118 -50.1,234.2 -168.18,259.4 l -927.38,197.9 c -118.08,25.2 -234.22,-50.1 -259.42,-168.2 v 0 c -25.19,-118.1 50.11,-234.2 168.18,-259.4 l 927.38,-197.9 c 118.08,-25.2 234.22,50.1 259.42,168.2"
         style="fill:#F7D7B6;fill-opacity:1;fill-rule:nonzero;stroke:none"
         transform="matrix(0.13333333,0,0,-0.13333333,0,2666.6667)" />
      <path
         id="path15"
         d="m 3423.13,10322 v 0 c 25.19,118 -50.1,234.2 -168.18,259.4 l -927.38,197.9 c -118.08,25.2 -234.22,-50.1 -259.42,-168.2 v 0 c -25.19,-118.1 50.11,-234.2 168.18,-259.4 l 927.38,-197.9 c 118.08,-25.2 234.22,50.1 259.42,168.2 z"
         style="fill:none;stroke:#F7D7B6;stroke-width:33.7437;stroke-linecap:butt;stroke-linejoin:miter;stroke-miterlimit:10;stroke-dasharray:none;stroke-opacity:1"
         transform="matrix(0.13333333,0,0,-0.13333333,0,2666.6667)" />
      <path
         id="path16"
         d="m 16482.6,11219.2 v 0 c -35.7,115.3 28.8,237.7 144.2,273.5 l 905.8,280.5 c 115.3,35.7 237.8,-28.8 273.5,-144.2 v 0 c 35.7,-115.3 -28.8,-237.8 -144.2,-273.5 l -905.8,-280.5 c -115.3,-35.7 -237.8,28.8 -273.5,144.2"
         style="fill:#F7D7B6;fill-opacity:1;fill-rule:nonzero;stroke:none"
         transform="matrix(0.13333333,0,0,-0.13333333,0,2666.6667)" />
      <path
         id="path17"
         d="m 16482.6,11219.2 v 0 c -35.7,115.3 28.8,237.7 144.2,273.5 l 905.8,280.5 c 115.3,35.7 237.8,-28.8 273.5,-144.2 v 0 c 35.7,-115.3 -28.8,-237.8 -144.2,-273.5 l -905.8,-280.5 c -115.3,-35.7 -237.8,28.8 -273.5,144.2 z"
         style="fill:none;stroke:#F7D7B6;stroke-width:33.7437;stroke-linecap:butt;stroke-linejoin:miter;stroke-miterlimit:10;stroke-dasharray:none;stroke-opacity:1"
         transform="matrix(0.13333333,0,0,-0.13333333,0,2666.6667)" />
      <path
         id="path18"
         d="m 2598.13,6821.4 v 0 c -35.71,115.3 28.83,237.8 144.16,273.5 l 905.82,280.5 c 115.33,35.7 237.77,-28.8 273.48,-144.2 h 0.01 c 35.71,-115.3 -28.83,-237.8 -144.16,-273.5 l -905.81,-280.5 c -115.34,-35.7 -237.78,28.8 -273.5,144.2"
         style="fill:#F7D7B6;fill-opacity:1;fill-rule:nonzero;stroke:none"
         transform="matrix(0.13333333,0,0,-0.13333333,0,2666.6667)" />
      <path
         id="path19"
         d="m 2598.13,6821.4 v 0 c -35.71,115.3 28.83,237.8 144.16,273.5 l 905.82,280.5 c 115.33,35.7 237.77,-28.8 273.48,-144.2 h 0.01 c 35.71,-115.3 -28.83,-237.8 -144.16,-273.5 l -905.81,-280.5 c -115.34,-35.7 -237.78,28.8 -273.5,144.2 z"
         style="fill:none;stroke:#F7D7B6;stroke-width:33.7437;stroke-linecap:butt;stroke-linejoin:miter;stroke-miterlimit:10;stroke-dasharray:none;stroke-opacity:1"
         transform="matrix(0.13333333,0,0,-0.13333333,0,2666.6667)" />
      <path
         id="path20"
         d="m 10812.7,9689.6 c 106.1,-379.3 -115.3,-772.8 -494.6,-879 -379.24,-106.1 -772.76,115.3 -878.91,494.6 -106.15,379.2 115.25,772.8 494.53,878.9 379.28,106.2 772.78,-115.2 878.98,-494.5"
         style="fill:#F7D7B6;fill-opacity:1;fill-rule:nonzero;stroke:none"
         transform="matrix(0.13333333,0,0,-0.13333333,0,2666.6667)" />
      <path
         id="path21"
         d="m 10812.7,9689.6 c 106.1,-379.3 -115.3,-772.8 -494.6,-879 -379.24,-106.1 -772.76,115.3 -878.91,494.6 -106.15,379.2 115.25,772.8 494.53,878.9 379.28,106.2 772.78,-115.2 878.98,-494.5 z"
         style="fill:none;stroke:#F7D7B6;stroke-width:26.4872;stroke-linecap:butt;stroke-linejoin:miter;stroke-miterlimit:10;stroke-dasharray:none;stroke-opacity:1"
         transform="matrix(0.13333333,0,0,-0.13333333,0,2666.6667)" />
      <path
         id="path22"
         d="M 12002.8,14418.9 9783.05,9911.4 10144,9767.1 l 361,-144.2 1497.8,4796"
         style="fill:#F7D7B6;fill-opacity:1;fill-rule:nonzero;stroke:none"
         transform="matrix(0.13333333,0,0,-0.13333333,0,2666.6667)" />
      <path
         id="path23"
         d="M 12002.8,14418.9 9783.05,9911.4 10144,9767.1 l 361,-144.2 z"
         style="fill:none;stroke:#F7D7B6;stroke-width:18.4329;stroke-linecap:butt;stroke-linejoin:miter;stroke-miterlimit:10;stroke-dasharray:none;stroke-opacity:1"
         transform="matrix(0.13333333,0,0,-0.13333333,0,2666.6667)" />
      <path
         id="path24"
         d="m 10601.7,9630.5 c 73.5,-262.7 -79.9,-535.4 -342.6,-608.9 -262.77,-73.5 -535.4,79.9 -608.93,342.6 -73.55,262.8 79.84,535.4 342.6,608.9 262.73,73.6 535.43,-79.8 608.93,-342.6"
         style="fill:none;fill-opacity:1;fill-rule:nonzero;stroke:none"
         transform="matrix(0.13333333,0,0,-0.13333333,0,2666.6667)" />
      <path
         id="path25"
         d="m 10601.7,9630.5 c 73.5,-262.7 -79.9,-535.4 -342.6,-608.9 -262.77,-73.5 -535.4,79.9 -608.93,342.6 -73.55,262.8 79.84,535.4 342.6,608.9 262.73,73.6 535.43,-79.8 608.93,-342.6 z"
         style="fill:none;stroke:#F7D7B6;stroke-width:26.4872;stroke-linecap:butt;stroke-linejoin:miter;stroke-miterlimit:10;stroke-dasharray:none;stroke-opacity:1"
         transform="matrix(0.13333333,0,0,-0.13333333,0,2666.6667)" />
    </g>
  </g>
</svg>
