<svg xmlns="http://www.w3.org/2000/svg" style="display:none">
  <symbol id="xmark" viewBox="0 0 384 512"><path fill="currentColor" d="M55.1 73.4c-12.5-12.5-32.8-12.5-45.3 0s-12.5 32.8 0 45.3L147.2 256 9.9 393.4c-12.5 12.5-12.5 32.8 0 45.3s32.8 12.5 45.3 0L192.5 301.3 329.9 438.6c12.5 12.5 32.8 12.5 45.3 0s12.5-32.8 0-45.3L237.8 256 375.1 118.6c12.5-12.5 12.5-32.8 0-45.3s-32.8-12.5-45.3 0L192.5 210.7 55.1 73.4z"/></symbol>
  <symbol id="file-medical" viewBox="0 0 384 512"><path fill="currentColor" d="M0 64C0 28.7 28.7 0 64 0L213.5 0c17 0 33.3 6.7 45.3 18.7L365.3 125.3c12 12 18.7 28.3 18.7 45.3L384 448c0 35.3-28.7 64-64 64L64 512c-35.3 0-64-28.7-64-64L0 64zm208-5.5l0 93.5c0 13.3 10.7 24 24 24L325.5 176 208 58.5zM160 280l0 40-40 0c-8.8 0-16 7.2-16 16l0 32c0 8.8 7.2 16 16 16l40 0 0 40c0 8.8 7.2 16 16 16l32 0c8.8 0 16-7.2 16-16l0-40 40 0c8.8 0 16-7.2 16-16l0-32c0-8.8-7.2-16-16-16l-40 0 0-40c0-8.8-7.2-16-16-16l-32 0c-8.8 0-16 7.2-16 16z"/></symbol>
  <symbol id="shield-halved" viewBox="0 0 512 512"><path fill="currentColor" d="M256 0c4.6 0 9.2 1 13.4 2.9L457.8 82.8c22 9.3 38.4 31 38.3 57.2-.5 99.2-41.3 280.7-213.6 363.2-16.7 8-36.1 8-52.8 0-172.4-82.5-213.1-264-213.6-363.2-.1-26.2 16.3-47.9 38.3-57.2L242.7 2.9C246.9 1 251.4 0 256 0zm0 66.8l0 378.1c138-66.8 175.1-214.8 176-303.4l-176-74.6 0 0z"/></symbol>
  <symbol id="gavel" viewBox="0 0 576 512"><path fill="currentColor" d="M169.6 153.4l-18.7-18.7c-12.5-12.5-12.5-32.8 0-45.3L265.6-25.4c12.5-12.5 32.8-12.5 45.3 0L329.6-6.6c12.5 12.5 12.5 32.8 0 45.3L214.9 153.4c-12.5 12.5-32.8 12.5-45.3 0zM276 211.7l-31.4-31.4 112-112 119.4 119.4-112 112-31.4-31.4-232 232c-15.6 15.6-40.9 15.6-56.6 0s-15.6-40.9 0-56.6l232-232zM390.9 374.6c-12.5-12.5-12.5-32.8 0-45.3L505.6 214.6c12.5-12.5 32.8-12.5 45.3 0l18.7 18.7c12.5 12.5 12.5 32.8 0 45.3L454.9 393.4c-12.5 12.5-32.8 12.5-45.3 0l-18.7-18.7z"/></symbol>
  <symbol id="chess" viewBox="0 0 512 512"><path fill="currentColor" d="M168 56l0 40-78.1 0c-14.3 0-25.9 11.6-25.9 25.9 0 4 .9 8 2.7 11.6l33.4 66.8c-11.4 1.8-20.2 11.7-20.2 23.7 0 13.3 10.7 24 24 24l5.6 0-13.6 136-56.2 70.3c-5 6.3-7.8 14.1-7.8 22.2 0 19.6 15.9 35.5 35.5 35.5l248.9 0c19.6 0 35.5-15.9 35.5-35.5 0-8.1-2.7-15.9-7.8-22.2L288 384 274.4 248 280 248c13.3 0 24-10.7 24-24 0-11.9-8.7-21.9-20.2-23.7l33.4-66.8c1.8-3.6 2.7-7.6 2.7-11.6 0-14.3-11.6-25.9-25.9-25.9l-78.1 0 0-40 16 0c13.3 0 24-10.7 24-24S245.3 8 232 8l-16 0 0-16c0-13.3-10.7-24-24-24S168-21.3 168-8l0 16-16 0c-13.3 0-24 10.7-24 24s10.7 24 24 24l16 0zM325.8 279.6l8.5 85.5 47.4 59.2 4.2 5.7c9.2 13.7 14.1 29.9 14.1 46.5 0 12.7-2.8 24.8-7.9 35.5l83.1 0c20.3 0 36.8-16.5 36.8-36.8 0-7.3-2.2-14.4-6.2-20.4l-25.8-38.7 0-64 13.3-13.3c12-12 18.7-28.3 18.7-45.3L512 192c0-17.7-14.3-32-32-32s-32 14.3-32 32l0 16-32 0 0-16c0-17.7-14.3-32-32-32s-32 14.3-32 32l0 32c0 22.4-10.2 42.4-26.2 55.6z"/></symbol>
  <symbol id="atom" viewBox="0 0 448 512"><path fill="currentColor" d="M224 398.8c-11.8 5.1-23.4 9.7-34.9 13.5 16.7 33.8 31 35.7 34.9 35.7s18.1-1.9 34.9-35.7c-11.4-3.9-23.1-8.4-34.9-13.5zM414 256c33 45.2 44.3 90.9 23.6 128-20.2 36.3-62.5 49.3-115.2 43.2-22 52.1-55.7 84.8-98.4 84.8s-76.4-32.7-98.4-84.8C72.9 433.3 30.6 420.3 10.4 384-10.3 346.9 1 301.2 34 256 1 210.8-10.3 165.1 10.4 128 30.6 91.7 72.9 78.7 125.6 84.8 147.6 32.7 181.2 0 224 0s76.4 32.7 98.4 84.8c52.7-6.1 95 6.8 115.2 43.2 20.7 37.1 9.4 82.8-23.6 128zm-65.8 67.4c-1.7 14.2-3.9 28-6.7 41.2 31.8 1.4 38.6-8.7 40.2-11.7 2.3-4.2 7-17.9-11.9-48.1-6.8 6.3-14 12.5-21.6 18.6zm-6.7-175.9c2.8 13.1 5 26.9 6.7 41.2 7.6 6.1 14.8 12.3 21.6 18.6 18.9-30.2 14.2-44 11.9-48.1-1.6-2.9-8.4-13-40.2-11.7zM258.9 99.7C242.1 65.9 227.9 64 224 64s-18.1 1.9-34.9 35.7c11.4 3.9 23.1 8.4 34.9 13.5 11.8-5.1 23.4-9.7 34.9-13.5zm-159 88.9c1.7-14.3 3.9-28 6.7-41.2-31.8-1.4-38.6 8.7-40.2 11.7-2.3 4.2-7 17.9 11.9 48.1 6.8-6.3 14-12.5 21.6-18.6zM78.2 304.8c-18.9 30.2-14.2 44-11.9 48.1 1.6 2.9 8.4 13 40.2 11.7-2.8-13.1-5-26.9-6.7-41.2-7.6-6.1-14.8-12.3-21.6-18.6zM304 256a80 80 0 1 0 -160 0 80 80 0 1 0 160 0zm-80-32a32 32 0 1 1 0 64 32 32 0 1 1 0-64z"/></symbol>
  <symbol id="heart-pulse" viewBox="0 0 512 512"><path fill="currentColor" d="M256 107.9L241 87.1C216 52.5 175.9 32 133.1 32 59.6 32 0 91.6 0 165.1l0 2.6c0 23.6 6.2 48 16.6 72.3l106 0c3.2 0 6.1-1.9 7.4-4.9l31.8-76.3c3.7-8.8 12.3-14.6 21.8-14.8s18.3 5.4 22.2 14.1l51.3 113.9 41.4-82.8c4.1-8.1 12.4-13.3 21.5-13.3s17.4 5.1 21.5 13.3l23.2 46.3c1.4 2.7 4.1 4.4 7.2 4.4l123.6 0c10.5-24.3 16.6-48.7 16.6-72.3l0-2.6C512 91.6 452.4 32 378.9 32C336.2 32 296 52.5 271 87.1l-15 20.7zM469.6 288l-97.8 0c-21.2 0-40.6-12-50.1-31l-1.7-3.4-42.5 85.1c-4.1 8.3-12.7 13.5-22 13.3s-17.6-5.7-21.4-14.1l-49.3-109.5-10.5 25.2c-8.7 20.9-29.1 34.5-51.7 34.5l-80.2 0c47.2 73.8 123 141.7 170.4 177.9 12.4 9.4 27.6 14.1 43.1 14.1s30.8-4.6 43.1-14.1C346.6 429.7 422.4 361.8 469.6 288z"/></symbol>
  <symbol id="check" viewBox="0 0 448 512"><path fill="currentColor" d="M434.8 70.1c14.3 10.4 17.5 30.4 7.1 44.7l-256 352c-5.5 7.6-14 12.3-23.4 13.1s-18.5-2.7-25.1-9.3l-128-128c-12.5-12.5-12.5-32.8 0-45.3s32.8-12.5 45.3 0l101.5 101.5 234-321.7c10.4-14.3 30.4-17.5 44.7-7.1z"/></symbol>
  <symbol id="headset" viewBox="0 0 448 512"><path fill="currentColor" d="M224 64c-79 0-144.7 57.3-157.7 132.7 9.3-3 19.3-4.7 29.7-4.7l16 0c26.5 0 48 21.5 48 48l0 96c0 26.5-21.5 48-48 48l-16 0c-53 0-96-43-96-96l0-64C0 100.3 100.3 0 224 0S448 100.3 448 224l0 168.1c0 66.3-53.8 120-120.1 120l-87.9-.1-32 0c-26.5 0-48-21.5-48-48s21.5-48 48-48l32 0c26.5 0 48 21.5 48 48l0 0 40 0c39.8 0 72-32.2 72-72l0-20.9c-14.1 8.2-30.5 12.8-48 12.8l-16 0c-26.5 0-48-21.5-48-48l0-96c0-26.5 21.5-48 48-48l16 0c10.4 0 20.3 1.6 29.7 4.7-13-75.3-78.6-132.7-157.7-132.7z"/></symbol>
  <symbol id="magnifying-glass-chart" viewBox="0 0 512 512"><path fill="currentColor" d="M416 208c0 45.9-14.9 88.3-40 122.7L502.6 457.4c12.5 12.5 12.5 32.8 0 45.3s-32.8 12.5-45.3 0L330.7 376C296.3 401.1 253.9 416 208 416 93.1 416 0 322.9 0 208S93.1 0 208 0 416 93.1 416 208zm-312 8l0 64c0 13.3 10.7 24 24 24s24-10.7 24-24l0-64c0-13.3-10.7-24-24-24s-24 10.7-24 24zm80-96l0 160c0 13.3 10.7 24 24 24s24-10.7 24-24l0-160c0-13.3-10.7-24-24-24s-24 10.7-24 24zm80 64l0 96c0 13.3 10.7 24 24 24s24-10.7 24-24l0-96c0-13.3-10.7-24-24-24s-24 10.7-24 24z"/></symbol>
  <symbol id="user-doctor" viewBox="0 0 448 512"><path fill="currentColor" d="M224 8a120 120 0 1 0 0 240 120 120 0 1 0 0-240zm60 312.8c-5.4-.5-11-.8-16.6-.8l-86.9 0c-5.6 0-11.1 .3-16.6 .8l0 67.5c16.5 7.6 28 24.3 28 43.6 0 26.5-21.5 48-48 48s-48-21.5-48-48c0-19.4 11.5-36.1 28-43.6l0-58.4C61 353 16 413.6 16 484.6 16 499.7 28.3 512 43.4 512l361.1 0c15.1 0 27.4-12.3 27.4-27.4 0-71-45-131.5-108-154.6l0 37.4c23.3 8.2 40 30.5 40 56.6l0 32c0 11-9 20-20 20s-20-9-20-20l0-32c0-11-9-20-20-20s-20 9-20 20l0 32c0 11-9 20-20 20s-20-9-20-20l0-32c0-26.1 16.7-48.3 40-56.6l0-46.6z"/></symbol>
  <symbol id="scale-balanced" viewBox="0 0 640 512"><path fill="currentColor" d="M384 32l128 0c17.7 0 32 14.3 32 32s-14.3 32-32 32L398.4 96c-5.2 25.8-22.9 47.1-46.4 57.3l0 294.7 160 0c17.7 0 32 14.3 32 32s-14.3 32-32 32l-384 0c-17.7 0-32-14.3-32-32s14.3-32 32-32l160 0 0-294.7c-23.5-10.3-41.2-31.6-46.4-57.3L128 96c-17.7 0-32-14.3-32-32s14.3-32 32-32l128 0c14.6-19.4 37.8-32 64-32s49.4 12.6 64 32zm55.6 288L584.4 320 512 195.8 439.6 320zM512 416c-62.9 0-115.2-34-126-78.9-2.6-11 1-22.3 6.7-32.1l95.2-163.2c5-8.6 14.2-13.8 24.1-13.8s19.1 5.3 24.1 13.8l95.2 163.2c5.7 9.8 9.3 21.1 6.7 32.1-10.8 44.8-63.1 78.9-126 78.9zM126.8 195.8L54.4 320 199.3 320 126.8 195.8zM.9 337.1c-2.6-11 1-22.3 6.7-32.1l95.2-163.2c5-8.6 14.2-13.8 24.1-13.8s19.1 5.3 24.1 13.8l95.2 163.2c5.7 9.8 9.3 21.1 6.7 32.1-10.8 44.8-63.1 78.9-126 78.9S11.7 382 .9 337.1z"/></symbol>
  <symbol id="certificate" viewBox="0 0 576 512"><path fill="currentColor" d="M239.2-8c-6.1-6.2-15-8.7-23.4-6.4S200.9-5.6 198.8 2.8L183.5 63c-1.1 4.4-5.6 7-9.9 5.7L113.8 51.9c-8.4-2.4-17.4 0-23.5 6.1s-8.5 15.1-6.1 23.5l16.9 59.8c1.2 4.3-1.4 8.8-5.7 9.9L35.1 166.5c-8.4 2.1-15 8.7-17.3 17.1s.2 17.3 6.4 23.4l44.5 43.3c3.2 3.1 3.2 8.3 0 11.5L24.3 305.1c-6.2 6.1-8.7 15-6.4 23.4s8.9 14.9 17.3 17.1l60.2 15.3c4.4 1.1 7 5.6 5.7 9.9L84.2 430.5c-2.4 8.4 0 17.4 6.1 23.5s15.1 8.5 23.5 6.1l59.8-16.9c4.3-1.2 8.8 1.4 9.9 5.7l15.3 60.2c2.1 8.4 8.7 15 17.1 17.3s17.3-.2 23.4-6.4l43.3-44.5c3.1-3.2 8.3-3.2 11.5 0L337.3 520c6.1 6.2 15 8.7 23.4 6.4s14.9-8.9 17.1-17.3L393.1 449c1.1-4.4 5.6-7 9.9-5.7l59.8 16.9c8.4 2.4 17.4 0 23.5-6.1s8.5-15.1 6.1-23.5l-16.9-59.8c-1.2-4.3 1.4-8.8 5.7-9.9l60.2-15.3c8.4-2.1 15-8.7 17.3-17.1s-.2-17.4-6.4-23.4l-44.5-43.3c-3.2-3.1-3.2-8.3 0-11.5l44.5-43.3c6.2-6.1 8.7-15 6.4-23.4s-8.9-14.9-17.3-17.1l-60.2-15.3c-4.4-1.1-7-5.6-5.7-9.9l16.9-59.8c2.4-8.4 0-17.4-6.1-23.5s-15.1-8.5-23.5-6.1L403 68.8c-4.3 1.2-8.8-1.4-9.9-5.7L377.8 2.8c-2.1-8.4-8.7-15-17.1-17.3s-17.3 .2-23.4 6.4L294 36.5c-3.1 3.2-8.3 3.2-11.5 0L239.2-8z"/></symbol>
  <symbol id="handshake" viewBox="0 0 576 512"><path fill="currentColor" d="M268.9 85.2L152.3 214.8c-4.6 5.1-4.4 13 .5 17.9 30.5 30.5 80 30.5 110.5 0l31.8-31.8c4.2-4.2 9.5-6.5 14.9-6.9 6.8-.6 13.8 1.7 19 6.9L505.6 376 576 320 576 32 464 96 440.2 80.1C424.4 69.6 405.9 64 386.9 64l-70.4 0c-1.1 0-2.3 0-3.4 .1-16.9 .9-32.8 8.5-44.2 21.1zM116.6 182.7L223.4 64 183.8 64c-25.5 0-49.9 10.1-67.9 28.1L112 96 0 32 0 320 156.4 450.3c23 19.2 52 29.7 81.9 29.7l15.7 0-7-7c-9.4-9.4-9.4-24.6 0-33.9s24.6-9.4 33.9 0l41 41 9 0c19.1 0 37.8-4.3 54.8-12.3L359 441c-9.4-9.4-9.4-24.6 0-33.9s24.6-9.4 33.9 0l32 32 17.5-17.5c8.9-8.9 11.5-21.8 7.6-33.1l-137.9-136.8-14.9 14.9c-49.3 49.3-129.1 49.3-178.4 0-23-23-23.9-59.9-2.2-84z"/></symbol>
  <symbol id="graduation-cap" viewBox="0 0 576 512"><path fill="currentColor" d="M48 195.8l209.2 86.1c9.8 4 20.2 6.1 30.8 6.1s21-2.1 30.8-6.1l242.4-99.8c9-3.7 14.8-12.4 14.8-22.1s-5.8-18.4-14.8-22.1L318.8 38.1C309 34.1 298.6 32 288 32s-21 2.1-30.8 6.1L14.8 137.9C5.8 141.6 0 150.3 0 160L0 456c0 13.3 10.7 24 24 24s24-10.7 24-24l0-260.2zm48 71.7L96 384c0 53 86 96 192 96s192-43 192-96l0-116.6-142.9 58.9c-15.6 6.4-32.2 9.7-49.1 9.7s-33.5-3.3-49.1-9.7L96 267.4z"/></symbol>
  <symbol id="clock" viewBox="0 0 512 512"><path fill="currentColor" d="M256 0a256 256 0 1 1 0 512 256 256 0 1 1 0-512zM232 120l0 136c0 8 4 15.5 10.7 20l96 64c11 7.4 25.9 4.4 33.3-6.7s4.4-25.9-6.7-33.3L280 243.2 280 120c0-13.3-10.7-24-24-24s-24 10.7-24 24z"/></symbol>
  <symbol id="pen-fancy" viewBox="0 0 512 512"><path fill="currentColor" d="M373.5 27.1c15-17.2 36.7-27.1 59.6-27.1 43.6 0 79 35.4 79 79 0 22.8-9.9 44.6-27.1 59.6L283.7 313.8 273 303 209 239 198.2 228.3 373.5 27.1zM161.1 259C162 260 188 286 239 337l13.9 13.9-17.1 74.2c-3.9 17.1-16.9 30.7-33.8 35.4l-169.8 47.5 92.3-92.3c1.2 .1 2.3 .2 3.5 .2 17.7 0 32-14.3 32-32s-14.3-32-32-32-32 14.3-32 32c0 1.2 .1 2.4 .2 3.5L3.9 479.8 51.5 310c4.7-16.9 18.3-29.9 35.4-33.8L161.1 259z"/></symbol>
  <symbol id="microscope" viewBox="0 0 512 512"><path fill="currentColor" d="M176 0c-26.5 0-48 21.5-48 48l0 208c0 26.5 21.5 48 48 48l64 0c26.5 0 48-21.5 48-48l0-64 32 0c70.7 0 128 57.3 128 128S390.7 448 320 448L32 448c-17.7 0-32 14.3-32 32s14.3 32 32 32l448 0c17.7 0 32-14.3 32-32s-14.3-32-32-32l-16.9 0c30.4-34 48.9-78.8 48.9-128 0-106-86-192-192-192l-32 0 0-80c0-26.5-21.5-48-48-48L176 0zM120 352c-13.3 0-24 10.7-24 24s10.7 24 24 24l176 0c13.3 0 24-10.7 24-24s-10.7-24-24-24l-176 0z"/></symbol>
  <symbol id="quote-left" viewBox="0 0 448 512"><path fill="currentColor" d="M0 216C0 149.7 53.7 96 120 96l8 0c17.7 0 32 14.3 32 32s-14.3 32-32 32l-8 0c-30.9 0-56 25.1-56 56l0 8 64 0c35.3 0 64 28.7 64 64l0 64c0 35.3-28.7 64-64 64l-64 0c-35.3 0-64-28.7-64-64L0 216zm256 0c0-66.3 53.7-120 120-120l8 0c17.7 0 32 14.3 32 32s-14.3 32-32 32l-8 0c-30.9 0-56 25.1-56 56l0 8 64 0c35.3 0 64 28.7 64 64l0 64c0 35.3-28.7 64-64 64l-64 0c-35.3 0-64-28.7-64-64l0-136z"/></symbol>
  <symbol id="chevron-down" viewBox="0 0 448 512"><path fill="currentColor" d="M201.4 406.6c12.5 12.5 32.8 12.5 45.3 0l192-192c12.5-12.5 12.5-32.8 0-45.3s-32.8-12.5-45.3 0L224 338.7 54.6 169.4c-12.5-12.5-32.8-12.5-45.3 0s-12.5 32.8 0 45.3l192 192z"/></symbol>
  <symbol id="envelope" viewBox="0 0 512 512"><path fill="currentColor" d="M48 64c-26.5 0-48 21.5-48 48 0 15.1 7.1 29.3 19.2 38.4l208 156c17.1 12.8 40.5 12.8 57.6 0l208-156c12.1-9.1 19.2-23.3 19.2-38.4 0-26.5-21.5-48-48-48L48 64zM0 196L0 384c0 35.3 28.7 64 64 64l384 0c35.3 0 64-28.7 64-64l0-188-198.4 148.8c-34.1 25.6-81.1 25.6-115.2 0L0 196z"/></symbol>
  <symbol id="phone" viewBox="0 0 512 512"><path fill="currentColor" d="M160.2 25C152.3 6.1 131.7-3.9 112.1 1.4l-5.5 1.5c-64.6 17.6-119.8 80.2-103.7 156.4 37.1 175 174.8 312.7 349.8 349.8 76.3 16.2 138.8-39.1 156.4-103.7l1.5-5.5c5.4-19.7-4.7-40.3-23.5-48.1l-97.3-40.5c-16.5-6.9-35.6-2.1-47 11.8l-38.6 47.2C233.9 335.4 177.3 277 144.8 205.3L189 169.3c13.9-11.3 18.6-30.4 11.8-47L160.2 25z"/></symbol>
  <symbol id="whatsapp" viewBox="0 0 448 512"><path fill="currentColor" d="M380.9 97.1c-41.9-42-97.7-65.1-157-65.1-122.4 0-222 99.6-222 222 0 39.1 10.2 77.3 29.6 111L0 480 117.7 449.1c32.4 17.7 68.9 27 106.1 27l.1 0c122.3 0 224.1-99.6 224.1-222 0-59.3-25.2-115-67.1-157zm-157 341.6c-33.2 0-65.7-8.9-94-25.7l-6.7-4-69.8 18.3 18.6-68.1-4.4-7c-18.5-29.4-28.2-63.3-28.2-98.2 0-101.7 82.8-184.5 184.6-184.5 49.3 0 95.6 19.2 130.4 54.1s56.2 81.2 56.1 130.5c0 101.8-84.9 184.6-186.6 184.6zM325.1 300.5c-5.5-2.8-32.8-16.2-37.9-18-5.1-1.9-8.8-2.8-12.5 2.8s-14.3 18-17.6 21.8c-3.2 3.7-6.5 4.2-12 1.4-32.6-16.3-54-29.1-75.5-66-5.7-9.8 5.7-9.1 16.3-30.3 1.8-3.7 .9-6.9-.5-9.7s-12.5-30.1-17.1-41.2c-4.5-10.8-9.1-9.3-12.5-9.5-3.2-.2-6.9-.2-10.6-.2s-9.7 1.4-14.8 6.9c-5.1 5.6-19.4 19-19.4 46.3s19.9 53.7 22.6 57.4c2.8 3.7 39.1 59.7 94.8 83.8 35.2 15.2 49 16.5 66.6 13.9 10.7-1.6 32.8-13.4 37.4-26.4s4.6-24.1 3.2-26.4c-1.3-2.5-5-3.9-10.5-6.6z"/></symbol>
  <symbol id="instagram" viewBox="0 0 448 512"><path fill="currentColor" d="M224.3 141a115 115 0 1 0 -.6 230 115 115 0 1 0 .6-230zm-.6 40.4a74.6 74.6 0 1 1 .6 149.2 74.6 74.6 0 1 1 -.6-149.2zm93.4-45.1a26.8 26.8 0 1 1 53.6 0 26.8 26.8 0 1 1 -53.6 0zm129.7 27.2c-1.7-35.9-9.9-67.7-36.2-93.9-26.2-26.2-58-34.4-93.9-36.2-37-2.1-147.9-2.1-184.9 0-35.8 1.7-67.6 9.9-93.9 36.1s-34.4 58-36.2 93.9c-2.1 37-2.1 147.9 0 184.9 1.7 35.9 9.9 67.7 36.2 93.9s58 34.4 93.9 36.2c37 2.1 147.9 2.1 184.9 0 35.9-1.7 67.7-9.9 93.9-36.2 26.2-26.2 34.4-58 36.2-93.9 2.1-37 2.1-147.8 0-184.8zM399 388c-7.8 19.6-22.9 34.7-42.6 42.6-29.5 11.7-99.5 9-132.1 9s-102.7 2.6-132.1-9c-19.6-7.8-34.7-22.9-42.6-42.6-11.7-29.5-9-99.5-9-132.1s-2.6-102.7 9-132.1c7.8-19.6 22.9-34.7 42.6-42.6 29.5-11.7 99.5-9 132.1-9s102.7-2.6 132.1 9c19.6 7.8 34.7 22.9 42.6 42.6 11.7 29.5 9 99.5 9 132.1s2.7 102.7-9 132.1z"/></symbol>
  <symbol id="linkedin-in" viewBox="0 0 448 512"><path fill="currentColor" d="M100.3 448l-92.9 0 0-299.1 92.9 0 0 299.1zM53.8 108.1C24.1 108.1 0 83.5 0 53.8 0 39.5 5.7 25.9 15.8 15.8s23.8-15.8 38-15.8 27.9 5.7 38 15.8 15.8 23.8 15.8 38c0 29.7-24.1 54.3-53.8 54.3zM447.9 448l-92.7 0 0-145.6c0-34.7-.7-79.2-48.3-79.2-48.3 0-55.7 37.7-55.7 76.7l0 148.1-92.8 0 0-299.1 89.1 0 0 40.8 1.3 0c12.4-23.5 42.7-48.3 87.9-48.3 94 0 111.3 61.9 111.3 142.3l0 164.3-.1 0z"/></symbol>
</svg>
